scaled_model_ID_test_static_coords.mot
version=1
datacolumns 20
datarows 46
range 2.860000 3.310000
inDegrees=yes
endheader
time	pelvis_tilt	pelvis_list	pelvis_rotation	hip_flexion_r	hip_adduction_r	hip_rotation_r	knee_angle_r	ankle_angle_r	hip_flexion_l	hip_adduction_l	hip_rotation_l	knee_angle_l	ankle_angle_l	pelvis_tx	pelvis_ty	pelvis_tz	lumbar_bending	lumbar_rotation	lumbar_extension
2.860000	9.889088	0.405937	-179.032120	12.907374	-5.418548	-4.389806	-8.122932	2.554265	10.585795	-6.105805	-4.534627	-8.013973	2.839318	0.688460	0.934799	-0.114361	-1.397661	-0.670587	7.769219
2.870000	9.904158	0.407384	-179.021831	12.914160	-5.420794	-4.405178	-8.121421	2.588654	10.587230	-6.110986	-4.498973	-8.003269	2.884003	0.688382	0.934787	-0.114372	-1.398702	-0.662629	7.787241
2.880000	9.928937	0.410328	-179.014755	12.925198	-5.420278	-4.426637	-8.108426	2.623422	10.592500	-6.122151	-4.470828	-7.983710	2.936872	0.688277	0.934774	-0.114387	-1.402966	-0.655765	7.808934
2.890000	9.958571	0.413750	-179.012127	12.937799	-5.416805	-4.453854	-8.086616	2.656077	10.601225	-6.137632	-4.458137	-7.960466	2.986653	0.688151	0.934763	-0.114406	-1.410748	-0.652533	7.830170
2.900000	9.987185	0.416503	-179.015233	12.948992	-5.411417	-4.484621	-8.061197	2.684357	10.612937	-6.153895	-4.463397	-7.941983	3.021676	0.688013	0.934760	-0.114420	-1.420059	-0.654508	7.847246
2.910000	10.009465	0.417585	-179.025016	12.956361	-5.406057	-4.513968	-8.038324	2.705626	10.626561	-6.166612	-4.482182	-7.936654	3.034445	0.687876	0.934769	-0.114420	-1.427569	-0.661709	7.858152
2.920000	10.021774	0.416623	-179.041754	12.958519	-5.402444	-4.534791	-8.023430	2.716966	10.639483	-6.172655	-4.505388	-7.948346	3.024582	0.687753	0.934789	-0.114400	-1.429805	-0.672269	7.862655
2.930000	10.022715	0.414146	-179.064639	12.955166	-5.401156	-4.540306	-8.019767	2.716102	10.647432	-6.171688	-4.524100	-7.973664	2.999337	0.687655	0.934818	-0.114359	-1.424390	-0.682902	7.861619
2.940000	10.013318	0.411326	-179.091393	12.947042	-5.401620	-4.527100	-8.027550	2.702479	10.645973	-6.166238	-4.534184	-8.002993	2.971326	0.687588	0.934847	-0.114303	-1.411133	-0.690143	7.856312
2.950000	9.996892	0.409359	-179.118590	12.936110	-5.402760	-4.496910	-8.044205	2.677725	10.632779	-6.160294	-4.537564	-8.024692	2.953674	0.687551	0.934868	-0.114244	-1.392322	-0.691716	7.848158
2.960000	9.978439	0.408918	-179.142856	12.925817	-5.403540	-4.455928	-8.065815	2.645443	10.609029	-6.157407	-4.539381	-8.029644	2.954408	0.687537	0.934873	-0.114193	-1.371825	-0.687300	7.838947
2.970000	9.963585	0.410002	-179.162127	12.920757	-5.403110	-4.412113	-8.088895	2.610638	10.579015	-6.159394	-4.543363	-8.013856	2.973432	0.687534	0.934859	-0.114159	-1.353459	-0.678359	7.831183
2.980000	9.957111	0.412218	-179.176088	12.925193	-5.400846	-4.372237	-8.111246	2.578742	10.548309	-6.166104	-4.548864	-7.978731	3.003815	0.687530	0.934827	-0.114145	-1.339519	-0.667239	7.827936
2.990000	9.961398	0.415273	-179.185547	12.940952	-5.396539	-4.340338	-8.131761	2.554178	10.521724	-6.176047	-4.551651	-7.929917	3.035652	0.687514	0.934786	-0.114143	-1.330404	-0.655988	7.831731
3.000000	9.975527	0.419284	-179.191354	12.966235	-5.390596	-4.318025	-8.149996	2.539363	10.502205	-6.187235	-4.547573	-7.875582	3.059858	0.687478	0.934744	-0.114144	-1.325561	-0.645546	7.843070
3.010000	9.995774	0.424508	-179.193937	12.996316	-5.384132	-4.305892	-8.165850	2.535181	10.490911	-6.197657	-4.536268	-7.824548	3.070746	0.687423	0.934712	-0.114133	-1.324749	-0.635848	7.859810
3.020000	10.017310	0.430639	-179.193621	13.025678	-5.379019	-4.304635	-8.179238	2.541967	10.487929	-6.205161	-4.522303	-7.784504	3.067152	0.687355	0.934698	-0.114103	-1.328535	-0.626765	7.877960
3.030000	10.036172	0.436284	-179.190847	13.050101	-5.377712	-4.314853	-8.189799	2.559290	10.492949	-6.207241	-4.513023	-7.760573	3.051526	0.687285	0.934706	-0.114051	-1.337888	-0.619108	7.893414
3.040000	10.050358	0.439302	-179.185913	13.067360	-5.382598	-4.335754	-8.196579	2.584598	10.505459	-6.201473	-4.514666	-7.754676	3.027368	0.687222	0.934733	-0.113981	-1.353339	-0.614721	7.903502
3.050000	10.059575	0.438048	-179.178940	13.076373	-5.394750	-4.364103	-8.197736	2.612312	10.524198	-6.186900	-4.529328	-7.765764	2.997300	0.687172	0.934773	-0.113905	-1.374096	-0.615390	7.907465
3.060000	10.064017	0.432709	-179.170487	13.075855	-5.412731	-4.394549	-8.190728	2.634651	10.546150	-6.165468	-4.554394	-7.790494	2.963419	0.687133	0.934816	-0.113833	-1.397541	-0.621350	7.905667
3.070000	10.063215	0.425644	-179.162045	13.063795	-5.432471	-4.421340	-8.173344	2.644457	10.566121	-6.142050	-4.584110	-7.823881	2.928489	0.687096	0.934855	-0.113770	-1.419755	-0.630543	7.898368
3.080000	10.055983	0.420266	-179.155636	13.038422	-5.448748	-4.440284	-8.145187	2.638932	10.577952	-6.122439	-4.611830	-7.860005	2.895803	0.687054	0.934886	-0.113719	-1.436893	-0.639275	7.885266
3.090000	10.041625	0.419014	-179.152611	13.000179	-5.457641	-4.449785	-8.108778	2.622004	10.577320	-6.110539	-4.632136	-7.893271	2.868141	0.687003	0.934906	-0.113680	-1.446679	-0.644018	7.866322
3.100000	10.021447	0.421886	-179.152567	12.953318	-5.458421	-4.450851	-8.069667	2.603310	10.564549	-6.106810	-4.642569	-7.920155	2.847515	0.686943	0.934917	-0.113654	-1.449186	-0.643205	7.843177
3.110000	9.999250	0.426739	-179.153993	12.905934	-5.453243	-4.446910	-8.035314	2.593672	10.545202	-6.109071	-4.644210	-7.940445	2.835956	0.686881	0.934919	-0.113641	-1.445924	-0.637776	7.819805
3.120000	9.980316	0.431125	-179.156305	12.868022	-5.444825	-4.443494	-8.012965	2.599494	10.527792	-6.114927	-4.640757	-7.956983	2.836065	0.686826	0.934910	-0.113644	-1.437952	-0.630192	7.801583
3.130000	9.969468	0.434091	-179.160738	12.847931	-5.434361	-4.446841	-8.007030	2.619628	10.520163	-6.123817	-4.636918	-7.973846	2.849789	0.686783	0.934888	-0.113659	-1.425357	-0.622820	7.793287
3.140000	9.969332	0.436665	-179.169230	12.848952	-5.421304	-4.461351	-8.016996	2.646580	10.526453	-6.137189	-4.636473	-7.993775	2.876169	0.686751	0.934853	-0.113683	-1.408517	-0.616673	7.797374
3.150000	9.979607	0.441118	-179.182725	12.868078	-5.404607	-4.487444	-8.037214	2.670857	10.545614	-6.156976	-4.639875	-8.016053	2.910789	0.686726	0.934808	-0.113708	-1.389474	-0.610864	7.813468
3.160000	9.997490	0.449690	-179.200061	12.897584	-5.384232	-4.521321	-8.059193	2.685602	10.571805	-6.183572	-4.642519	-8.035893	2.947696	0.686698	0.934761	-0.113729	-1.372239	-0.603033	7.838946
3.170000	10.018806	0.463156	-179.218111	12.928409	-5.362116	-4.556538	-8.075296	2.688877	10.596480	-6.214303	-4.635712	-8.045883	2.981510	0.686663	0.934718	-0.113739	-1.361538	-0.590921	7.869822
3.180000	10.039219	0.479741	-179.233320	12.953561	-5.342248	-4.586125	-8.081827	2.682751	10.611445	-6.243052	-4.611014	-8.039191	3.007807	0.686619	0.934688	-0.113736	-1.360399	-0.574381	7.901414
3.190000	10.055104	0.495487	-179.243594	12.969946	-5.329364	-4.604486	-8.080065	2.670532	10.611630	-6.261954	-4.565773	-8.013003	3.022788	0.686576	0.934673	-0.113716	-1.368348	-0.555999	7.928832
3.200000	10.063969	0.506244	-179.249076	12.977947	-5.326571	-4.608774	-8.074933	2.654589	10.596261	-6.264945	-4.506213	-7.970201	3.023936	0.686544	0.934675	-0.113681	-1.381717	-0.539615	7.947652
3.210000	10.064507	0.509788	-179.251479	12.979297	-5.333631	-4.599111	-8.071932	2.636217	10.568192	-6.250888	-4.446003	-7.918356	3.011153	0.686532	0.934691	-0.113634	-1.395668	-0.528146	7.954844
3.220000	10.056381	0.506616	-179.252618	12.974668	-5.347178	-4.577670	-8.073857	2.616654	10.532190	-6.224269	-4.400948	-7.867027	2.987327	0.686542	0.934717	-0.113579	-1.406338	-0.522384	7.949598
3.230000	10.039931	0.499217	-179.253161	12.962553	-5.362447	-4.547701	-8.079190	2.597522	10.493285	-6.193333	-4.382465	-7.825196	2.958179	0.686567	0.934746	-0.113525	-1.411908	-0.521282	7.933491
3.240000	10.016016	0.490533	-179.252175	12.940054	-5.375520	-4.513484	-8.083034	2.580352	10.455738	-6.166685	-4.393182	-7.799580	2.931490	0.686599	0.934773	-0.113481	-1.412630	-0.523101	7.909892
3.250000	9.986244	0.482726	-179.247641	12.905076	-5.384814	-4.480948	-8.079913	2.565947	10.422546	-6.150049	-4.426643	-7.793239	2.915518	0.686629	0.934794	-0.113452	-1.410444	-0.526314	7.883094
3.260000	9.953401	0.477051	-179.237930	12.858766	-5.390722	-4.457424	-8.066774	2.554081	10.395195	-6.144899	-4.470570	-7.804234	2.916087	0.686649	0.934804	-0.113441	-1.408381	-0.529513	7.857569
3.270000	9.921538	0.474254	-179.223547	12.806864	-5.394220	-4.449560	-8.044943	2.544007	10.373630	-6.149149	-4.511611	-7.825431	2.933794	0.686654	0.934803	-0.113440	-1.409666	-0.530990	7.837285
3.280000	9.895174	0.474324	-179.207520	12.758902	-5.396510	-4.460069	-8.020595	2.535987	10.356712	-6.158636	-4.539601	-7.846827	2.963873	0.686643	0.934790	-0.113442	-1.417009	-0.529294	7.824763
3.290000	9.877706	0.475925	-179.193835	12.725009	-5.399528	-4.485313	-8.003064	2.532336	10.343106	-6.168737	-4.549990	-7.859781	2.998552	0.686618	0.934766	-0.113437	-1.432314	-0.524367	7.820094
3.300000	9.869844	0.476697	-179.185301	12.711652	-5.405700	-4.515973	-8.000946	2.536603	10.332027	-6.176106	-4.543769	-7.860875	3.029887	0.686590	0.934733	-0.113423	-1.456174	-0.517844	7.820696
3.310000	9.869151	0.474440	-179.182311	12.718700	-5.416856	-4.541134	-8.017910	2.551716	10.323507	-6.179813	-4.525768	-7.853322	3.052015	0.686571	0.934698	-0.113403	-1.487068	-0.512167	7.822389
